M48
INCH
T10C0.140000
T11C0.108000
T12C0.030000
T13C0.055556
T14C0.032000
T15C0.049000
T16C0.075000
T17C0.042000
T18C0.040000
T19C0.038000
T20C0.035000
T21C0.125984
T22C0.165354
T23C0.031555
T24C0.031496
T25C0.037000
T26C0.117590
%
T10
X004315Y024078
T11
X002415Y025328
X004315Y026528
T12
X016668Y012098
X015666Y012098
X014668Y012098
X013666Y012098
X024666Y014600
X024666Y013598
X018165Y014598
X019166Y014598
T13
X015166Y002099
X017166Y002099
X015166Y008098
X016166Y008098
X017166Y008098
T14
X021166Y006170
X022166Y006170
X022166Y003170
X021166Y003170
T15
X025256Y005304
X030056Y005304
X025256Y003342
X030056Y003342
T16
X027656Y002634
X027656Y006079
T17
X008370Y024119
X008370Y027099
X006981Y024119
X006981Y027099
X012666Y027099
X013666Y027099
X014666Y027099
T18
X024166Y002098
X023166Y002098
X021166Y008098
X022166Y008098
X023166Y008098
X024166Y008098
X009166Y002098
X010166Y002098
X011166Y002098
X009166Y008098
X010166Y008098
X018166Y008098
X013166Y008098
X019166Y002098
X014166Y008098
X019166Y008098
X018166Y002098
T19
X024666Y012098
X023666Y012098
X022666Y012098
X022666Y011098
X023666Y011098
X024666Y011098
X009666Y024099
X009666Y025099
X018666Y024099
X018666Y025099
X018666Y026099
X026166Y021099
X026166Y022099
T20
X009433Y016599
X009433Y012598
X010425Y019099
X010425Y015098
X005166Y017099
X008166Y017099
X005166Y018099
X008166Y018099
X005166Y019099
X008166Y019099
X005166Y013598
X008166Y013598
X005166Y014598
X008166Y014598
X005166Y015598
X008166Y015598
X012666Y018987
X012666Y015987
X013666Y018987
X013666Y015987
X014666Y018987
X014666Y015987
X015666Y018987
X015666Y015987
X016666Y018987
X016666Y015987
X017666Y018987
X017666Y015987
X018666Y018987
X018666Y015987
X019666Y018987
X019666Y015987
X020666Y018987
X020666Y015987
X021666Y018987
X021666Y015987
X022666Y018987
X022666Y015987
X023666Y018987
X023666Y015987
X024666Y018987
X024666Y015987
X025666Y018987
X025666Y015987
X016666Y026099
X016666Y025099
X006166Y005098
X003607Y005098
X006166Y006870
X003607Y006870
X006166Y001598
X003607Y001598
X006166Y003370
X003607Y003370
X010197Y026216
X010666Y027098
X018666Y021599
X017666Y021599
X016666Y021599
X015666Y021599
X014666Y021599
X013666Y021599
X012666Y021599
X011666Y021599
X010666Y021599
X009666Y021599
X008666Y021599
X007666Y021599
X006666Y021599
X005666Y021599
X004666Y021599
X003666Y021599
X025666Y015098
X025666Y011098
X020166Y021599
X024166Y021599
T21
X031244Y001098
X031246Y019099
X001300Y027319
X001309Y001098
T22
X031126Y021698
X031126Y009259
X001405Y021698
X001405Y009259
T23
X014236Y013599
T24
X016166Y013598
T25
X027716Y025219
X026616Y025219
X025536Y025219
X024436Y025219
X028256Y024099
X027166Y024099
X026076Y024099
X024986Y024099
X023896Y024099
T26
X021212Y024654
X031002Y024654
T00
M30
